<svg fill="#000000" version="1.1" id="Capa_1" xmlns="http://www.w3.org/2000/svg" xmlns:xlink="http://www.w3.org/1999/xlink" viewBox="-2.77 -2.77 33.22 33.22" xml:space="preserve"><g id="SVGRepo_bgCarrier" stroke-width="0"><rect x="-2.77" y="-2.77" width="33.22" height="33.22" rx="16.61" fill="#d94031" strokewidth="0"></rect></g><g id="SVGRepo_tracerCarrier" stroke-linecap="round" stroke-linejoin="round"></g><g id="SVGRepo_iconCarrier"> <g> <g> <path d="M1.307,9.336c1.28-1.428,3.113-2.248,5.029-2.248c3.065,0,5.655,2.056,6.476,4.86c0.091-0.394,0.2-0.786,0.347-1.174 c0.023-0.086,0.043-0.125,0.063-0.165l0.058-0.145c0.032-0.084,0.064-0.168,0.102-0.25l0.169-0.369 c-1.409-2.536-4.113-4.257-7.214-4.257c-2.342,0-4.582,1.001-6.146,2.747c-0.276,0.309-0.25,0.783,0.058,1.059 C0.557,9.67,1.03,9.647,1.307,9.336z"></path> <path d="M27.426,18.279c-0.308-0.275-0.784-0.25-1.059,0.06c-1.279,1.429-3.113,2.249-5.031,2.249 c-3.064,0-5.655-2.057-6.476-4.859c-0.091,0.395-0.2,0.787-0.348,1.174c-0.023,0.086-0.043,0.125-0.062,0.164l-0.056,0.141 c-0.033,0.085-0.065,0.171-0.104,0.254l-0.168,0.371c1.409,2.535,4.112,4.255,7.213,4.255c2.344,0,4.585-1.002,6.148-2.749 C27.761,19.031,27.736,18.557,27.426,18.279z"></path>
 <path d="M21.337,7.088c1.916,0,3.749,0.819,5.029,2.248c0.278,0.31,0.751,0.333,1.06,0.058c0.309-0.276,0.334-0.75,0.059-1.059 c-1.564-1.746-3.806-2.747-6.146-2.747c-3.337,0-6.189,2.006-7.488,4.864c-0.004-0.01-0.007-0.021-0.012-0.03 c-0.053,0.115-0.093,0.236-0.141,0.354c-0.018,0.044-0.044,0.084-0.061,0.129l-0.009,0.046c-0.34,0.9-0.54,1.87-0.54,2.888 c0,3.722-3.028,6.749-6.75,6.749c-1.915,0-3.747-0.818-5.026-2.246c-0.278-0.311-0.752-0.334-1.06-0.059 c-0.309,0.277-0.334,0.752-0.058,1.06c1.564,1.744,3.804,2.745,6.144,2.745c3.337,0,6.191-2.006,7.488-4.863 c0.004,0.01,0.007,0.021,0.012,0.03c0.053-0.116,0.094-0.237,0.142-0.356c0.018-0.043,0.043-0.084,0.06-0.127l0.009-0.045 c0.34-0.899,0.54-1.869,0.54-2.888C14.587,10.117,17.616,7.088,21.337,7.088z"></path>
 <path d="M5.561,12.554c0-1.506-1.332-1.515-1.771-1.975H3.26v4.998c-0.145-0.063-0.309-0.103-0.484-0.103 c-0.562,0-1.016,0.363-1.016,0.812s0.454,0.812,1.015,0.812s1.016-0.363,1.015-0.812v-4.912 C4.338,11.801,5.485,11.647,5.561,12.554z"></path>
 <path d="M5.576,17.098c0.561,0,1.016-0.363,1.015-0.812v-4.912c0.548,0.427,1.695,0.272,1.771,1.18 c0-1.506-1.332-1.515-1.771-1.975H6.062v4.998c-0.144-0.063-0.308-0.103-0.484-0.103c-0.562,0-1.016,0.363-1.016,0.812 S5.015,17.098,5.576,17.098z"></path> <path d="M8.377,17.098c0.562,0,1.017-0.363,1.016-0.812v-4.912c0.546,0.427,1.695,0.272,1.77,1.18c0-1.506-1.333-1.515-1.77-1.975 h-0.53v4.998c-0.144-0.063-0.308-0.103-0.484-0.103c-0.562,0-1.016,0.363-1.016,0.812S7.816,17.098,8.377,17.098z"></path> <path d="M20.366,12.554c0-1.506-1.332-1.515-1.771-1.975h-0.528v4.998c-0.146-0.063-0.31-0.103-0.483-0.103 c-0.562,0-1.017,0.363-1.017,0.812s0.454,0.812,1.015,0.812s1.016-0.363,1.015-0.812v-4.912 C19.142,11.801,20.291,11.647,20.366,12.554z"></path> <path d="M20.381,17.098c0.562,0,1.017-0.363,1.016-0.812v-4.912c0.548,0.427,1.694,0.272,1.771,1.18 c0-1.506-1.332-1.515-1.771-1.975h-0.529v4.998c-0.145-0.063-0.309-0.103-0.483-0.103c-0.562,0-1.017,0.363-1.017,0.812 S19.821,17.098,20.381,17.098z"></path> <path d="M23.181,17.098c0.562,0,1.018-0.363,1.017-0.812v-4.912c0.547,0.427,1.694,0.272,1.77,1.18 c0-1.506-1.332-1.515-1.77-1.975h-0.53v4.998c-0.144-0.063-0.308-0.103-0.484-0.103c-0.562,0-1.016,0.363-1.016,0.812 S22.622,17.098,23.181,17.098z"></path> </g> </g> </g></svg>
